<svg width="34" height="34" viewBox="0 0 34 34" fill="none" xmlns="http://www.w3.org/2000/svg">
<path fill-rule="evenodd" clip-rule="evenodd" d="M12.3 4.80005C12.3 2.31477 14.3147 0.300049 16.8 0.300049C19.2852 0.300049 21.3 2.31477 21.3 4.80005C21.3 7.28531 19.2853 9.30005 16.8 9.30005C14.3147 9.30005 12.3 7.28531 12.3 4.80005ZM16.8 1.30005C14.867 1.30005 13.3 2.86706 13.3 4.80005C13.3 6.73303 14.867 8.30005 16.8 8.30005C18.733 8.30005 20.3 6.73303 20.3 4.80005C20.3 2.86706 18.733 1.30005 16.8 1.30005Z" fill="#0962E8"/>
<path fill-rule="evenodd" clip-rule="evenodd" d="M14.362 13.1H19.238C19.9451 13.1 20.3388 13.1 20.6763 13.1332C23.9523 13.4558 26.5441 16.0477 26.8668 19.3237C26.9 19.6612 26.9 20.0549 26.9 20.7621V20.8C26.9 21.0761 26.6762 21.3 26.4 21.3H7.20001C6.92387 21.3 6.70001 21.0761 6.70001 20.8L6.70001 20.762C6.7 20.0549 6.7 19.6612 6.73322 19.3237C7.05588 16.0477 9.6477 13.4558 12.9237 13.1332C13.2612 13.1 13.6549 13.1 14.362 13.1ZM13.0217 14.1284C10.2205 14.4043 8.0043 16.6205 7.72841 19.4217C7.70766 19.6324 7.70207 19.876 7.70056 20.3H25.8995C25.898 19.876 25.8924 19.6324 25.8716 19.4217C25.5957 16.6205 23.3795 14.4043 20.5783 14.1284C20.296 14.1006 19.9549 14.1 19.2 14.1H14.4C13.6452 14.1 13.304 14.1006 13.0217 14.1284Z" fill="#0962E8"/>
<path fill-rule="evenodd" clip-rule="evenodd" d="M3.62041 18.7568C3.76988 18.989 3.70282 19.2984 3.47063 19.4478C2.00175 20.3934 1.29999 21.4177 1.29999 22.4004C1.29999 23.1023 1.65354 23.8216 2.4009 24.5283C3.14932 25.2361 4.25912 25.8966 5.67197 26.4617C8.4949 27.5909 12.429 28.3004 16.8 28.3004C21.1709 28.3004 25.1051 27.5909 27.928 26.4617C29.3409 25.8966 30.4507 25.2361 31.1991 24.5283C31.9464 23.8216 32.3 23.1023 32.3 22.4004C32.3 21.4177 31.5982 20.3934 30.1293 19.4478C29.8972 19.2984 29.8301 18.989 29.9796 18.7568C30.129 18.5246 30.4384 18.4575 30.6706 18.607C32.2445 19.6201 33.3 20.9075 33.3 22.4004C33.3 23.4659 32.7581 24.4303 31.8862 25.2549C31.0153 26.0785 29.782 26.7971 28.2994 27.3902C25.3315 28.5773 21.2656 29.3004 16.8 29.3004C12.3344 29.3004 8.26851 28.5773 5.30058 27.3902C3.818 26.7971 2.58467 26.0785 1.71379 25.2549C0.841863 24.4303 0.299988 23.4659 0.299988 22.4004C0.299988 20.9075 1.35546 19.6201 2.92935 18.607C3.16154 18.4575 3.47094 18.5246 3.62041 18.7568Z" fill="#0962E8"/>
<path fill-rule="evenodd" clip-rule="evenodd" d="M12.4464 24.4465C12.6417 24.2512 12.9583 24.2512 13.1535 24.4465L17.1535 28.4465C17.3488 28.6418 17.3488 28.9583 17.1535 29.1536L13.1535 33.1536C12.9583 33.3489 12.6417 33.3489 12.4464 33.1536C12.2512 32.9583 12.2512 32.6418 12.4464 32.4465L16.0929 28.8L12.4464 25.1536C12.2512 24.9583 12.2512 24.6418 12.4464 24.4465Z" fill="#0962E8"/>
</svg>
