<svg width="35" height="33" viewBox="0 0 35 33" fill="none" xmlns="http://www.w3.org/2000/svg">
<path fill-rule="evenodd" clip-rule="evenodd" d="M3.05051 1.60655C4.64161 0.811002 6.8047 0.333374 9.16668 0.333374C11.5286 0.333374 13.6917 0.811002 15.2828 1.60655C16.844 2.38714 18 3.55803 18 5.00004C18 6.44205 16.844 7.61294 15.2828 8.39353C13.6917 9.18908 11.5286 9.66671 9.16668 9.66671C6.8047 9.66671 4.64161 9.18908 3.05051 8.39353C1.48932 7.61294 0.333344 6.44205 0.333344 5.00004C0.333344 3.55804 1.48932 2.38715 3.05051 1.60655ZM3.49773 2.50098C2.04284 3.22842 1.33334 4.14086 1.33334 5.00004C1.33334 5.85922 2.04284 6.77166 3.49773 7.4991C4.9227 8.21159 6.92628 8.66671 9.16668 8.66671C11.4071 8.66671 13.4106 8.21159 14.8356 7.4991C16.2905 6.77166 17 5.85922 17 5.00004C17 4.14087 16.2905 3.22842 14.8356 2.50098C13.4106 1.78849 11.4071 1.33337 9.16668 1.33337C6.92628 1.33337 4.9227 1.78849 3.49773 2.50098Z" fill="#0962E8"/>
<path fill-rule="evenodd" clip-rule="evenodd" d="M0.833344 4.5C1.10949 4.5 1.33334 4.72386 1.33334 5H0.833344H0.333344C0.333344 4.72386 0.557201 4.5 0.833344 4.5ZM17.5 5L18 5.00005V10.8333C18 12.2753 16.844 13.4462 15.2828 14.2268C13.6917 15.0224 11.5286 15.5 9.16668 15.5C6.8047 15.5 4.64161 15.0224 3.05051 14.2268C1.48932 13.4462 0.333344 12.2753 0.333344 10.8333V5H0.833344H1.33334V10.8333C1.33334 11.6925 2.04284 12.6049 3.49773 13.3324C4.9227 14.0449 6.92628 14.5 9.16668 14.5C11.4071 14.5 13.4106 14.0449 14.8356 13.3324C16.2905 12.6049 17 11.6925 17 10.8333V5.00081L17.5 5ZM17.5 5L18 5.00005C18 4.72391 17.7762 4.5 17.5 4.5C17.2239 4.5 17 4.72467 17 5.00081L17.5 5Z" fill="#0962E8"/>
<path fill-rule="evenodd" clip-rule="evenodd" d="M0.833344 10.3334C1.10949 10.3334 1.33334 10.5572 1.33334 10.8334H0.833344H0.333344C0.333344 10.5572 0.557201 10.3334 0.833344 10.3334ZM17.5 10.8334L18 10.8334V16.6667C18 18.1087 16.844 19.2796 15.2828 20.0602C13.6917 20.8557 11.5286 21.3334 9.16668 21.3334C6.8047 21.3334 4.64161 20.8557 3.05051 20.0602C1.48932 19.2796 0.333344 18.1087 0.333344 16.6667V10.8334H0.833344H1.33334V16.6667C1.33334 17.5259 2.04284 18.4383 3.49773 19.1658C4.9227 19.8783 6.92628 20.3334 9.16668 20.3334C11.4071 20.3334 13.4106 19.8783 14.8356 19.1658C16.2905 18.4383 17 17.5259 17 16.6667V10.8342L17.5 10.8334ZM17.5 10.8334L18 10.8334C18 10.5573 17.7762 10.3334 17.5 10.3334C17.2239 10.3334 17 10.558 17 10.8342L17.5 10.8334Z" fill="#0962E8"/>
<path fill-rule="evenodd" clip-rule="evenodd" d="M0.833344 16.1666C1.10949 16.1666 1.33334 16.3905 1.33334 16.6666H0.833344H0.333344C0.333344 16.3905 0.557201 16.1666 0.833344 16.1666ZM17.5 16.6666L18 16.6667V22.5C18 23.942 16.844 25.1129 15.2828 25.8934C13.6917 26.689 11.5286 27.1666 9.16668 27.1666C6.8047 27.1666 4.64161 26.689 3.05051 25.8934C1.48932 25.1128 0.333344 23.942 0.333344 22.5V16.6666H0.833344H1.33334V22.5C1.33334 23.3591 2.04284 24.2716 3.49773 24.999C4.9227 25.7115 6.92628 26.1666 9.16668 26.1666C11.4071 26.1666 13.4106 25.7115 14.8356 24.999C16.2905 24.2716 17 23.3591 17 22.5V16.6674L17.5 16.6666ZM17.5 16.6666L18 16.6667C18 16.3905 17.7762 16.1666 17.5 16.1666C17.2239 16.1666 17 16.3913 17 16.6674L17.5 16.6666Z" fill="#0962E8"/>
<path fill-rule="evenodd" clip-rule="evenodd" d="M0.833344 22C1.10949 22 1.33334 22.2239 1.33334 22.5H0.833344H0.333344C0.333344 22.2239 0.557201 22 0.833344 22ZM17.5 22.5L18 22.5001V28.3333C18 29.7753 16.844 30.9462 15.2828 31.7268C13.6917 32.5224 11.5286 33 9.16668 33C6.8047 33 4.64161 32.5224 3.05051 31.7268C1.48932 30.9462 0.333344 29.7753 0.333344 28.3333V22.5H0.833344H1.33334V28.3333C1.33334 29.1925 2.04284 30.1049 3.49773 30.8324C4.9227 31.5449 6.92628 32 9.16668 32C11.4071 32 13.4106 31.5449 14.8356 30.8324C16.2905 30.1049 17 29.1925 17 28.3333V22.5008L17.5 22.5ZM17.5 22.5L18 22.5001C18 22.2239 17.7762 22 17.5 22C17.2239 22 17 22.2247 17 22.5008L17.5 22.5Z" fill="#0962E8"/>
<path fill-rule="evenodd" clip-rule="evenodd" d="M19.7172 13.2732C21.3083 12.4776 23.4714 12 25.8333 12C28.1953 12 30.3584 12.4776 31.9495 13.2732C33.5107 14.0538 34.6667 15.2247 34.6667 16.6667C34.6667 18.1087 33.5107 19.2796 31.9495 20.0602C30.3584 20.8557 28.1953 21.3333 25.8333 21.3333C23.4714 21.3333 21.3083 20.8557 19.7172 20.0602C18.156 19.2796 17 18.1087 17 16.6667C17 15.2247 18.156 14.0538 19.7172 13.2732ZM20.1644 14.1676C18.7095 14.8951 18 15.8075 18 16.6667C18 17.5258 18.7095 18.4383 20.1644 19.1657C21.5894 19.8782 23.593 20.3333 25.8333 20.3333C28.0737 20.3333 30.0773 19.8782 31.5023 19.1657C32.9572 18.4383 33.6667 17.5258 33.6667 16.6667C33.6667 15.8075 32.9572 14.8951 31.5023 14.1676C30.0773 13.4551 28.0737 13 25.8333 13C23.593 13 21.5894 13.4551 20.1644 14.1676Z" fill="#0962E8"/>
<path fill-rule="evenodd" clip-rule="evenodd" d="M17.5 16.1666C17.7761 16.1666 18 16.3905 18 16.6666H17.5H17C17 16.3905 17.2239 16.1666 17.5 16.1666ZM34.1667 16.6666L34.6667 16.6667V22.5C34.6667 23.942 33.5107 25.1129 31.9495 25.8934C30.3584 26.689 28.1953 27.1666 25.8333 27.1666C23.4714 27.1666 21.3083 26.689 19.7172 25.8934C18.156 25.1129 17 23.942 17 22.5V16.6666H17.5H18V22.5C18 23.3591 18.7095 24.2716 20.1644 24.999C21.5894 25.7115 23.593 26.1666 25.8333 26.1666C28.0737 26.1666 30.0773 25.7115 31.5023 24.999C32.9572 24.2716 33.6667 23.3591 33.6667 22.5V16.6674L34.1667 16.6666ZM34.1667 16.6666L34.6667 16.6667C34.6667 16.3905 34.4428 16.1666 34.1667 16.1666C33.8905 16.1666 33.6667 16.3913 33.6667 16.6674L34.1667 16.6666Z" fill="#0962E8"/>
<path fill-rule="evenodd" clip-rule="evenodd" d="M17.5 22C17.7761 22 18 22.2239 18 22.5H17.5H17C17 22.2239 17.2239 22 17.5 22ZM34.1667 22.5L34.6667 22.5001V28.3333C34.6667 29.7753 33.5107 30.9462 31.9495 31.7268C30.3584 32.5224 28.1953 33 25.8333 33C23.4714 33 21.3083 32.5224 19.7172 31.7268C18.156 30.9462 17 29.7753 17 28.3333V22.5H17.5H18V28.3333C18 29.1925 18.7095 30.1049 20.1644 30.8324C21.5894 31.5449 23.593 32 25.8333 32C28.0737 32 30.0773 31.5449 31.5023 30.8324C32.9572 30.1049 33.6667 29.1925 33.6667 28.3333V22.5008L34.1667 22.5ZM34.1667 22.5L34.6667 22.5001C34.6667 22.2239 34.4428 22 34.1667 22C33.8905 22 33.6667 22.2247 33.6667 22.5008L34.1667 22.5Z" fill="#0962E8"/>
</svg>
