<svg width="35" height="35" viewBox="0 0 35 35" fill="none" xmlns="http://www.w3.org/2000/svg">
<path fill-rule="evenodd" clip-rule="evenodd" d="M2.71371 8.92879C2.71371 5.49671 5.49594 2.71448 8.92801 2.71448C12.3601 2.71448 15.1423 5.49672 15.1423 8.92879C15.1423 12.3609 12.3601 15.143 8.92801 15.143C5.49594 15.143 2.71371 12.3609 2.71371 8.92879ZM8.92801 3.71448C6.04823 3.71448 3.71371 6.04899 3.71371 8.92879C3.71371 11.8086 6.04822 14.143 8.92801 14.143C11.8078 14.143 14.1423 11.8086 14.1423 8.92879C14.1423 6.04899 11.8078 3.71448 8.92801 3.71448Z" fill="#0962E8"/>
<path fill-rule="evenodd" clip-rule="evenodd" d="M19.8564 26.0715C19.8564 22.6395 22.6387 19.8572 26.0707 19.8572C29.5028 19.8572 32.285 22.6395 32.285 26.0715C32.285 29.5035 29.5028 32.2858 26.0707 32.2858C22.6387 32.2858 19.8564 29.5035 19.8564 26.0715ZM26.0707 20.8572C23.191 20.8572 20.8564 23.1917 20.8564 26.0715C20.8564 28.9512 23.191 31.2858 26.0707 31.2858C28.9505 31.2858 31.285 28.9512 31.285 26.0715C31.285 23.1917 28.9505 20.8572 26.0707 20.8572Z" fill="#0962E8"/>
<path fill-rule="evenodd" clip-rule="evenodd" d="M0.57048 17.0747C0.71789 16.9836 0.901961 16.9753 1.05696 17.0528L6.61247 19.8306C6.85946 19.9541 6.95957 20.2545 6.83607 20.5014C6.71257 20.7484 6.41224 20.8485 6.16525 20.725L1.35374 18.3192C1.78037 26.8672 8.84615 33.6667 17.5 33.6667C17.7762 33.6667 18 33.8905 18 34.1667C18 34.4428 17.7762 34.6667 17.5 34.6667C8.01913 34.6667 0.333344 26.9809 0.333344 17.5C0.333344 17.3267 0.423071 17.1658 0.57048 17.0747Z" fill="#0962E8"/>
<path fill-rule="evenodd" clip-rule="evenodd" d="M17 0.833374C17 0.557232 17.2239 0.333374 17.5 0.333374C26.9809 0.333374 34.6667 8.01911 34.6667 17.5C34.6667 17.6733 34.5769 17.8343 34.4295 17.9254C34.2821 18.0165 34.0981 18.0248 33.9431 17.9473L28.3875 15.1695C28.1405 15.046 28.0404 14.7457 28.1639 14.4987C28.2874 14.2517 28.5877 14.1516 28.8347 14.2751L33.6463 16.6808C33.2197 8.13284 26.1539 1.33337 17.5 1.33337C17.2239 1.33337 17 1.10952 17 0.833374Z" fill="#0962E8"/>
</svg>
