<svg width="33" height="33" viewBox="0 0 33 33" fill="none" xmlns="http://www.w3.org/2000/svg">
<path fill-rule="evenodd" clip-rule="evenodd" d="M11.1667 6.66671C11.1667 3.16891 14.0022 0.333374 17.5 0.333374C20.9978 0.333374 23.8334 3.16891 23.8334 6.66671C23.8334 10.1645 20.9978 13 17.5 13C14.0022 13 11.1667 10.1645 11.1667 6.66671ZM17.5 1.33337C14.5545 1.33337 12.1667 3.72119 12.1667 6.66671C12.1667 9.61223 14.5545 12 17.5 12C20.4455 12 22.8334 9.61223 22.8334 6.66671C22.8334 3.72119 20.4455 1.33337 17.5 1.33337Z" fill="#0962E8"/>
<path fill-rule="evenodd" clip-rule="evenodd" d="M15.8333 18.8334C7.76821 18.8334 1.33331 24.6328 1.33331 31.6667C1.33331 31.9428 1.10946 32.1667 0.833313 32.1667C0.557171 32.1667 0.333313 31.9428 0.333313 31.6667C0.333313 23.973 7.32991 17.8334 15.8333 17.8334C16.1095 17.8334 16.3333 18.0572 16.3333 18.3334C16.3333 18.6095 16.1095 18.8334 15.8333 18.8334Z" fill="#0962E8"/>
<path fill-rule="evenodd" clip-rule="evenodd" d="M20.3333 24.572C20.3333 22.3056 21.9246 20.3334 24.0416 20.3334C25.0824 20.3334 26.0052 20.8195 26.6666 21.5765C27.3281 20.8195 28.2509 20.3334 29.2916 20.3334C31.4087 20.3334 33 22.3056 33 24.572C33 26.6063 31.9733 28.5021 30.73 29.9653C29.488 31.4269 27.9648 32.5335 26.8472 32.9663C26.731 33.0113 26.6023 33.0113 26.4861 32.9663C25.3685 32.5335 23.8453 31.4269 22.6033 29.9653C21.36 28.5021 20.3333 26.6063 20.3333 24.572ZM24.0416 21.3334C22.6149 21.3334 21.3333 22.7089 21.3333 24.572C21.3333 26.2764 22.2025 27.9493 23.3654 29.3178C24.4561 30.6013 25.748 31.5496 26.6666 31.9585C27.5853 31.5496 28.8772 30.6013 29.9679 29.3178C31.1308 27.9493 32 26.2764 32 24.572C32 22.7089 30.7184 21.3334 29.2916 21.3334C28.4113 21.3334 27.6011 21.8423 27.0946 22.6805C27.004 22.8303 26.8417 22.9219 26.6666 22.9219C26.4916 22.9219 26.3293 22.8303 26.2387 22.6805C25.7322 21.8423 24.922 21.3334 24.0416 21.3334Z" fill="#0962E8"/>
</svg>
